<svg width="147" height="98" viewBox="0 0 147 98" fill="none" xmlns="http://www.w3.org/2000/svg">
<path d="M13.48 24.2H25.192C25.416 24.2 25.528 24.328 25.528 24.584C25.528 24.776 25.4 24.888 25.144 24.92C24.248 25.048 23.608 25.448 23.224 26.12C22.84 26.76 22.648 27.8 22.648 29.24V38.84C22.648 38.904 22.648 39.016 22.648 39.176C22.744 48.392 18.904 53 11.128 53C9.848 53 8.6 52.84 7.384 52.52C6.2 52.168 5.048 51.544 3.928 50.648C2.808 49.752 1.976 48.632 1.432 47.288C0.728 45.432 0.792 43.832 1.624 42.488C2.488 41.112 3.656 40.424 5.128 40.424C6.664 40.424 7.816 40.792 8.584 41.528C9.384 42.232 9.784 43.144 9.784 44.264C9.784 44.968 9.64 45.576 9.352 46.088C9.096 46.568 8.808 46.936 8.488 47.192C8.2 47.416 7.912 47.736 7.624 48.152C7.368 48.568 7.24 49.08 7.24 49.688C7.24 50.488 7.544 51.112 8.152 51.56C8.792 51.976 9.464 52.184 10.168 52.184C11.352 52.184 12.36 51.736 13.192 50.84C14.024 49.912 14.616 48.792 14.968 47.48C15.32 46.168 15.576 44.856 15.736 43.544C15.928 42.232 16.008 41.128 15.976 40.232V38.84V29.24C15.976 27.768 15.8 26.712 15.448 26.072C15.128 25.432 14.472 25.048 13.48 24.92C13.224 24.888 13.096 24.776 13.096 24.584C13.096 24.328 13.224 24.2 13.48 24.2ZM32.1419 34.424C37.9339 34.136 41.2139 36.392 41.9819 41.192L42.7019 47.384C43.1179 49.912 43.8859 51.272 45.0059 51.464C45.0379 51.496 45.1499 51.512 45.3419 51.512C45.5659 51.48 45.7099 51.464 45.7739 51.464C45.9659 51.464 46.0779 51.56 46.1099 51.752C46.1419 51.912 46.0779 52.04 45.9179 52.136C44.5739 52.936 43.0539 53.336 41.3579 53.336C38.9579 53.336 37.3579 52.536 36.5579 50.936C36.5579 50.936 36.4779 51.016 36.3179 51.176C36.1899 51.336 35.9499 51.544 35.5979 51.8C35.2779 52.024 34.8939 52.248 34.4459 52.472C33.9979 52.696 33.4219 52.888 32.7179 53.048C32.0459 53.208 31.3099 53.288 30.5099 53.288C29.3579 53.288 28.3019 53.144 27.3419 52.856C26.4139 52.568 25.6299 52.056 24.9899 51.32C24.3179 50.584 23.9819 49.64 23.9819 48.488C23.9819 47.368 24.2219 46.44 24.7019 45.704C25.1819 44.968 25.8219 44.44 26.6219 44.12C27.4219 43.8 28.2219 43.56 29.0219 43.4C29.8539 43.24 30.7339 43.096 31.6619 42.968C32.6219 42.808 33.3419 42.616 33.8219 42.392C34.3979 42.136 34.7659 41.8 34.9259 41.384C35.1179 40.968 35.1659 40.392 35.0699 39.656C35.0059 38.984 34.8619 38.344 34.6379 37.736C34.4459 37.128 34.0779 36.552 33.5339 36.008C32.9899 35.432 32.3499 35.144 31.6139 35.144C30.9099 35.144 30.3819 35.32 30.0299 35.672C29.7099 35.992 29.5499 36.392 29.5499 36.872C29.5499 37.192 29.6459 37.48 29.8379 37.736C30.0619 37.992 30.3019 38.2 30.5579 38.36C30.8139 38.52 31.0219 38.776 31.1819 39.128C31.3739 39.48 31.4219 39.88 31.3259 40.328C31.2619 40.776 31.0379 41.176 30.6539 41.528C30.3019 41.848 29.8859 42.056 29.4059 42.152C28.9579 42.248 28.4779 42.264 27.9659 42.2C27.4859 42.136 27.0379 41.928 26.6219 41.576C26.2379 41.224 25.9819 40.776 25.8539 40.232C25.4379 38.76 25.7899 37.464 26.9099 36.344C28.0299 35.192 29.7739 34.552 32.1419 34.424ZM35.3579 42.104C35.0379 42.552 34.6219 42.904 34.1099 43.16C34.0139 43.224 33.7419 43.384 33.2939 43.64C32.8779 43.896 32.5899 44.088 32.4299 44.216C32.2699 44.312 32.0139 44.504 31.6619 44.792C31.3099 45.08 31.0539 45.352 30.8939 45.608C30.7659 45.832 30.6379 46.152 30.5099 46.568C30.3819 46.952 30.3179 47.368 30.3179 47.816C30.3179 49.608 31.0539 50.792 32.5259 51.368C33.7099 51.816 34.7019 51.688 35.5019 50.984C36.0459 50.536 36.2699 49.944 36.1739 49.208L35.3579 42.104ZM56.2473 34.376C56.3113 34.376 56.3753 34.392 56.4393 34.424C56.5353 34.488 56.5833 34.6 56.5833 34.76V36.536C57.7353 35.16 59.3193 34.472 61.3353 34.472C66.0073 34.472 68.6953 36.712 69.3993 41.192L70.1673 47.96C70.3593 49.368 70.6793 50.408 71.1273 51.08C71.5753 51.72 72.2633 52.12 73.1913 52.28C73.4793 52.312 73.6233 52.424 73.6233 52.616C73.6233 52.872 73.4953 53 73.2393 53H61.6233C61.3353 53 61.1913 52.872 61.1913 52.616C61.1913 52.424 61.3353 52.312 61.6233 52.28C62.5513 52.12 63.1273 51.736 63.3513 51.128C63.6073 50.488 63.6553 49.432 63.4953 47.96L62.7273 40.52C62.5353 39.08 62.1513 37.896 61.5753 36.968C60.9993 36.008 60.1673 35.608 59.0793 35.768C58.5353 35.832 58.0873 36.024 57.7353 36.344C57.4153 36.664 57.1753 37.144 57.0153 37.784C56.8553 38.392 56.7433 39.064 56.6793 39.8C56.6153 40.504 56.5833 41.416 56.5833 42.536V47.96C56.5833 49.4 56.7753 50.456 57.1593 51.128C57.5433 51.768 58.1833 52.152 59.0793 52.28C59.3353 52.312 59.4633 52.424 59.4633 52.616C59.4633 52.872 59.3513 53 59.1273 53H47.4153C47.1593 53 47.0312 52.872 47.0312 52.616C47.0312 52.424 47.1593 52.312 47.4153 52.28C48.4073 52.152 49.0633 51.768 49.3833 51.128C49.7353 50.488 49.9113 49.432 49.9113 47.96V43.352C49.9113 41.752 49.7673 40.6 49.4793 39.896C49.1913 39.16 48.5513 38.664 47.5593 38.408C47.3033 38.344 47.1753 38.216 47.1753 38.024C47.1753 37.8 47.3033 37.672 47.5593 37.64C48.9353 37.608 50.3273 37.32 51.7353 36.776C53.1433 36.232 54.1193 35.784 54.6633 35.432C55.2073 35.08 55.6553 34.76 56.0073 34.472C56.0713 34.408 56.1513 34.376 56.2473 34.376ZM80.7265 24.2C81.6865 24.2 82.5665 24.568 83.3665 25.304C84.1985 26.008 84.6145 26.936 84.6145 28.088C84.6145 29.176 84.2305 30.104 83.4625 30.872C82.7265 31.64 81.8145 32.024 80.7265 32.024C79.7985 32.024 78.9185 31.656 78.0865 30.92C77.2545 30.184 76.8385 29.24 76.8385 28.088C76.8385 27.032 77.2065 26.12 77.9425 25.352C78.7105 24.584 79.6385 24.2 80.7265 24.2ZM84.0385 34.52C84.1345 34.424 84.2465 34.408 84.3745 34.472C84.5345 34.504 84.6145 34.616 84.6145 34.808V47.96C84.6145 48.92 84.6945 49.704 84.8545 50.312C85.0145 50.888 85.2705 51.336 85.6225 51.656C86.0065 51.976 86.5025 52.184 87.1105 52.28C87.3665 52.312 87.4945 52.424 87.4945 52.616C87.4945 52.872 87.3825 53 87.1585 53H75.4465C75.1905 53 75.0625 52.872 75.0625 52.616C75.0625 52.424 75.1905 52.312 75.4465 52.28C76.4385 52.152 77.0945 51.768 77.4145 51.128C77.7665 50.488 77.9425 49.432 77.9425 47.96V43.352C77.9425 41.816 77.7505 40.664 77.3665 39.896C77.0145 39.096 76.4225 38.616 75.5905 38.456C75.3345 38.392 75.2065 38.264 75.2065 38.072C75.2065 37.848 75.3345 37.736 75.5905 37.736C76.9665 37.672 78.3585 37.368 79.7665 36.824C81.1745 36.28 82.1505 35.832 82.6945 35.48C83.2385 35.128 83.6865 34.808 84.0385 34.52ZM98.1535 34.376C98.2175 34.376 98.2815 34.392 98.3455 34.424C98.4415 34.488 98.4895 34.6 98.4895 34.76V36.536C99.6415 35.16 101.226 34.472 103.242 34.472C107.914 34.472 110.602 36.712 111.306 41.192L112.074 47.96C112.266 49.368 112.586 50.408 113.034 51.08C113.482 51.72 114.17 52.12 115.098 52.28C115.386 52.312 115.53 52.424 115.53 52.616C115.53 52.872 115.402 53 115.146 53H103.53C103.242 53 103.098 52.872 103.098 52.616C103.098 52.424 103.242 52.312 103.53 52.28C104.458 52.12 105.034 51.736 105.258 51.128C105.514 50.488 105.562 49.432 105.402 47.96L104.634 40.52C104.442 39.08 104.058 37.896 103.482 36.968C102.906 36.008 102.074 35.608 100.986 35.768C100.442 35.832 99.9935 36.024 99.6415 36.344C99.3215 36.664 99.0815 37.144 98.9215 37.784C98.7615 38.392 98.6495 39.064 98.5855 39.8C98.5215 40.504 98.4895 41.416 98.4895 42.536V47.96C98.4895 49.4 98.6815 50.456 99.0655 51.128C99.4495 51.768 100.09 52.152 100.986 52.28C101.242 52.312 101.37 52.424 101.37 52.616C101.37 52.872 101.258 53 101.034 53H89.3215C89.0655 53 88.9375 52.872 88.9375 52.616C88.9375 52.424 89.0655 52.312 89.3215 52.28C90.3135 52.152 90.9695 51.768 91.2895 51.128C91.6415 50.488 91.8175 49.432 91.8175 47.96V43.352C91.8175 41.752 91.6735 40.6 91.3855 39.896C91.0975 39.16 90.4575 38.664 89.4655 38.408C89.2095 38.344 89.0815 38.216 89.0815 38.024C89.0815 37.8 89.2095 37.672 89.4655 37.64C90.8415 37.608 92.2335 37.32 93.6415 36.776C95.0495 36.232 96.0255 35.784 96.5695 35.432C97.1135 35.08 97.5615 34.76 97.9135 34.472C97.9775 34.408 98.0575 34.376 98.1535 34.376ZM124.239 34.424C125.071 34.424 125.903 34.536 126.735 34.76C127.567 34.952 128.367 35.272 129.135 35.72C129.903 36.168 130.543 36.712 131.055 37.352C131.471 37.896 131.759 38.504 131.919 39.176C132.079 39.848 132.079 40.504 131.919 41.144C131.791 41.752 131.439 42.296 130.863 42.776C130.319 43.224 129.583 43.496 128.655 43.592L121.647 44.408C121.967 45.944 122.607 47.192 123.567 48.152C124.527 49.112 125.551 49.704 126.639 49.928C127.759 50.152 128.847 50.072 129.903 49.688C130.991 49.272 131.823 48.568 132.399 47.576C132.431 47.544 132.447 47.512 132.447 47.48C132.671 47.032 132.895 46.856 133.119 46.952C133.279 47.048 133.343 47.192 133.311 47.384C132.255 51.32 129.263 53.288 124.335 53.288C122.959 53.288 121.647 53.048 120.399 52.568C119.151 52.056 118.031 51.288 117.039 50.264C116.079 49.24 115.407 48.04 115.023 46.664C114.831 46.12 114.703 45.512 114.639 44.84C114.511 43.4 114.607 42.072 114.927 40.856C115.215 39.64 115.727 38.552 116.463 37.592C117.199 36.6 118.223 35.832 119.535 35.288C120.847 34.712 122.415 34.424 124.239 34.424ZM124.191 35.144C123.359 35.144 122.671 35.656 122.127 36.68C121.583 37.672 121.279 38.808 121.215 40.088C121.183 41.336 121.279 42.552 121.503 43.736C123.295 43.512 124.687 43.048 125.679 42.344C126.671 41.64 127.103 40.568 126.975 39.128C126.911 38.488 126.815 37.944 126.687 37.496C126.591 37.048 126.431 36.632 126.207 36.248C126.015 35.864 125.743 35.592 125.391 35.432C125.071 35.24 124.671 35.144 124.191 35.144Z" fill="#605B2F"/>
<path d="M2.384 52.2C3.184 52.2 4.4 52.2 6.032 52.2C7.696 52.2 9.248 52.2 10.688 52.2C12.128 52.2 13.488 52.2 14.768 52.2C18.256 52.2 20.96 52.808 22.88 54.024C24.832 55.208 25.808 56.84 25.808 58.92C25.808 60.2 25.536 61.304 24.992 62.232C24.448 63.16 23.712 63.896 22.784 64.44C21.888 64.952 20.736 65.368 19.328 65.688C21.536 65.912 23.376 66.6 24.848 67.752C26.32 68.872 27.056 70.536 27.056 72.744C27.056 75.336 26.016 77.368 23.936 78.84C21.888 80.28 19.2 81 15.872 81H2.384C2.128 81 2 80.872 2 80.616C2 80.424 2.128 80.312 2.384 80.28C3.376 80.152 4.032 79.768 4.352 79.128C4.704 78.488 4.88 77.432 4.88 75.96V57.24C4.88 55.768 4.704 54.712 4.352 54.072C4.032 53.432 3.376 53.048 2.384 52.92C2.128 52.888 2 52.776 2 52.584C2 52.328 2.128 52.2 2.384 52.2ZM13.424 52.92H11.552V65.592H13.424C14.832 65.592 16.128 65.016 17.312 63.864C18.528 62.712 19.136 61.112 19.136 59.064C19.136 56.984 18.56 55.448 17.408 54.456C16.288 53.432 14.96 52.92 13.424 52.92ZM11.552 66.312V80.28H13.952C15.648 80.28 17.136 79.624 18.416 78.312C19.696 77 20.336 75.144 20.336 72.744C20.336 71.912 20.224 71.16 20 70.488C19.808 69.784 19.536 69.208 19.184 68.76C18.832 68.312 18.416 67.928 17.936 67.608C17.488 67.256 16.992 67 16.448 66.84C15.936 66.648 15.424 66.52 14.912 66.456C14.432 66.36 13.92 66.312 13.376 66.312H11.552ZM39.0361 62.424C39.8681 62.424 40.7001 62.536 41.5321 62.76C42.3641 62.952 43.1641 63.272 43.9321 63.72C44.7001 64.168 45.3401 64.712 45.8521 65.352C46.2681 65.896 46.5561 66.504 46.7161 67.176C46.8761 67.848 46.8761 68.504 46.7161 69.144C46.5881 69.752 46.2361 70.296 45.6601 70.776C45.1161 71.224 44.3801 71.496 43.4521 71.592L36.4441 72.408C36.7641 73.944 37.4041 75.192 38.3641 76.152C39.3241 77.112 40.3481 77.704 41.4361 77.928C42.5561 78.152 43.6441 78.072 44.7001 77.688C45.7881 77.272 46.6201 76.568 47.1961 75.576C47.2281 75.544 47.2441 75.512 47.2441 75.48C47.4681 75.032 47.6921 74.856 47.9161 74.952C48.0761 75.048 48.1401 75.192 48.1081 75.384C47.0521 79.32 44.0601 81.288 39.1321 81.288C37.7561 81.288 36.4441 81.048 35.1961 80.568C33.9481 80.056 32.8281 79.288 31.8361 78.264C30.8761 77.24 30.2041 76.04 29.8201 74.664C29.6281 74.12 29.5001 73.512 29.4361 72.84C29.3081 71.4 29.4041 70.072 29.7241 68.856C30.0121 67.64 30.5241 66.552 31.2601 65.592C31.9961 64.6 33.0201 63.832 34.3321 63.288C35.6441 62.712 37.2121 62.424 39.0361 62.424ZM38.9881 63.144C38.1561 63.144 37.4681 63.656 36.9241 64.68C36.3801 65.672 36.0761 66.808 36.0121 68.088C35.9801 69.336 36.0761 70.552 36.3001 71.736C38.0921 71.512 39.4841 71.048 40.4761 70.344C41.4681 69.64 41.9001 68.568 41.7721 67.128C41.7081 66.488 41.6121 65.944 41.4841 65.496C41.3881 65.048 41.2281 64.632 41.0041 64.248C40.8121 63.864 40.5401 63.592 40.1881 63.432C39.8681 63.24 39.4681 63.144 38.9881 63.144ZM62.3353 62.184C64.0313 62.184 65.2633 62.824 66.0313 64.104C66.8313 65.384 66.7993 66.76 65.9353 68.232C65.5513 68.84 65.0073 69.272 64.3033 69.528C63.6313 69.752 62.9593 69.768 62.2873 69.576C61.1673 69.256 60.6073 68.6 60.6073 67.608C60.6073 67.096 60.8793 66.648 61.4233 66.264C61.9993 65.88 62.2873 65.496 62.2873 65.112C62.2873 64.536 62.0953 64.072 61.7113 63.72C61.3273 63.368 60.8313 63.24 60.2233 63.336C59.1673 63.656 58.4633 64.36 58.1113 65.448C57.7593 66.504 57.5833 68.136 57.5833 70.344V75.96C57.5833 77.4 57.7593 78.456 58.1113 79.128C58.4953 79.768 59.1513 80.152 60.0793 80.28C60.3353 80.312 60.4633 80.424 60.4633 80.616C60.4633 80.872 60.3353 81 60.0793 81H48.4153C48.1593 81 48.0312 80.872 48.0312 80.616C48.0312 80.424 48.1593 80.312 48.4153 80.28C49.3753 80.152 50.0313 79.768 50.3833 79.128C50.7353 78.488 50.9113 77.432 50.9113 75.96V71.352C50.9113 69.816 50.7193 68.664 50.3353 67.896C49.9833 67.096 49.3913 66.616 48.5593 66.456C48.2713 66.392 48.1273 66.264 48.1273 66.072C48.1273 65.848 48.2713 65.736 48.5593 65.736C49.9353 65.672 51.3273 65.368 52.7353 64.824C54.1433 64.28 55.1033 63.832 55.6153 63.48C56.1593 63.128 56.6073 62.808 56.9593 62.52C57.0873 62.424 57.2153 62.408 57.3433 62.472C57.5033 62.504 57.5833 62.616 57.5833 62.808V64.248C58.5433 63.32 59.5353 62.712 60.5593 62.424C61.1993 62.264 61.7913 62.184 62.3353 62.184ZM76.7473 62.376C76.8113 62.376 76.8753 62.392 76.9393 62.424C77.0353 62.488 77.0833 62.6 77.0833 62.76V64.536C78.2353 63.16 79.8193 62.472 81.8353 62.472C86.5073 62.472 89.1953 64.712 89.8993 69.192L90.6673 75.96C90.8593 77.368 91.1793 78.408 91.6273 79.08C92.0753 79.72 92.7633 80.12 93.6913 80.28C93.9793 80.312 94.1233 80.424 94.1233 80.616C94.1233 80.872 93.9953 81 93.7393 81H82.1233C81.8353 81 81.6913 80.872 81.6913 80.616C81.6913 80.424 81.8353 80.312 82.1233 80.28C83.0513 80.12 83.6273 79.736 83.8513 79.128C84.1073 78.488 84.1553 77.432 83.9953 75.96L83.2273 68.52C83.0353 67.08 82.6513 65.896 82.0753 64.968C81.4993 64.008 80.6673 63.608 79.5793 63.768C79.0353 63.832 78.5873 64.024 78.2353 64.344C77.9153 64.664 77.6753 65.144 77.5153 65.784C77.3553 66.392 77.2433 67.064 77.1793 67.8C77.1153 68.504 77.0833 69.416 77.0833 70.536V75.96C77.0833 77.4 77.2753 78.456 77.6593 79.128C78.0433 79.768 78.6833 80.152 79.5793 80.28C79.8353 80.312 79.9633 80.424 79.9633 80.616C79.9633 80.872 79.8513 81 79.6273 81H67.9153C67.6593 81 67.5312 80.872 67.5312 80.616C67.5312 80.424 67.6593 80.312 67.9153 80.28C68.9073 80.152 69.5633 79.768 69.8833 79.128C70.2353 78.488 70.4113 77.432 70.4113 75.96V71.352C70.4113 69.752 70.2673 68.6 69.9793 67.896C69.6913 67.16 69.0513 66.664 68.0593 66.408C67.8033 66.344 67.6753 66.216 67.6753 66.024C67.6753 65.8 67.8033 65.672 68.0593 65.64C69.4353 65.608 70.8273 65.32 72.2353 64.776C73.6433 64.232 74.6193 63.784 75.1633 63.432C75.7073 63.08 76.1553 62.76 76.5073 62.472C76.5713 62.408 76.6513 62.376 76.7473 62.376ZM102.833 62.424C103.665 62.424 104.497 62.536 105.329 62.76C106.161 62.952 106.961 63.272 107.729 63.72C108.497 64.168 109.137 64.712 109.649 65.352C110.065 65.896 110.353 66.504 110.513 67.176C110.673 67.848 110.673 68.504 110.513 69.144C110.385 69.752 110.033 70.296 109.457 70.776C108.913 71.224 108.177 71.496 107.249 71.592L100.241 72.408C100.561 73.944 101.201 75.192 102.161 76.152C103.121 77.112 104.145 77.704 105.233 77.928C106.353 78.152 107.441 78.072 108.497 77.688C109.585 77.272 110.417 76.568 110.993 75.576C111.025 75.544 111.041 75.512 111.041 75.48C111.265 75.032 111.489 74.856 111.713 74.952C111.873 75.048 111.937 75.192 111.905 75.384C110.849 79.32 107.857 81.288 102.929 81.288C101.553 81.288 100.241 81.048 98.993 80.568C97.745 80.056 96.625 79.288 95.633 78.264C94.673 77.24 94.001 76.04 93.617 74.664C93.425 74.12 93.297 73.512 93.233 72.84C93.105 71.4 93.201 70.072 93.521 68.856C93.809 67.64 94.321 66.552 95.057 65.592C95.793 64.6 96.817 63.832 98.129 63.288C99.441 62.712 101.009 62.424 102.833 62.424ZM102.785 63.144C101.953 63.144 101.265 63.656 100.721 64.68C100.177 65.672 99.873 66.808 99.809 68.088C99.777 69.336 99.873 70.552 100.097 71.736C101.889 71.512 103.281 71.048 104.273 70.344C105.265 69.64 105.697 68.568 105.569 67.128C105.505 66.488 105.409 65.944 105.281 65.496C105.185 65.048 105.025 64.632 104.801 64.248C104.609 63.864 104.337 63.592 103.985 63.432C103.665 63.24 103.265 63.144 102.785 63.144ZM119.665 55.944C119.729 55.752 119.857 55.672 120.049 55.704C120.241 55.736 120.337 55.864 120.337 56.088V63.432H123.649C123.905 63.432 124.033 63.56 124.033 63.816C124.033 64.04 123.905 64.152 123.649 64.152H120.337V74.568C120.337 77.064 120.849 78.296 121.873 78.264C122.257 78.264 122.641 78.088 123.025 77.736C123.409 77.384 123.697 76.984 123.889 76.536C123.953 76.376 124.065 76.296 124.225 76.296C124.353 76.296 124.449 76.36 124.513 76.488C124.577 76.584 124.577 76.696 124.513 76.824C123.969 78.072 123.169 79.128 122.113 79.992C121.057 80.856 119.889 81.288 118.609 81.288C116.945 81.288 115.697 80.776 114.865 79.752C114.033 78.696 113.617 76.968 113.617 74.568L113.665 67.176C113.665 66.6 113.665 66.168 113.665 65.88C113.665 65.592 113.617 65.304 113.521 65.016C113.457 64.728 113.393 64.552 113.329 64.488C113.297 64.392 113.169 64.312 112.945 64.248C112.689 64.152 112.465 64.104 112.273 64.104C112.081 64.104 111.761 64.104 111.313 64.104C111.025 64.04 110.881 63.912 110.881 63.72C110.881 63.528 111.009 63.416 111.265 63.384C112.609 63.096 114.225 62.168 116.113 60.6C118.033 59 119.217 57.448 119.665 55.944Z" fill="#605B2F"/>
<path d="M134.135 69.66C135.185 69.66 136.165 69.94 137.075 70.5C137.985 71.06 138.685 71.795 139.175 72.705C139.735 73.615 140.015 74.63 140.015 75.75C140.015 77.36 139.42 78.76 138.23 79.95C137.11 81.07 135.71 81.63 134.03 81.63C132.42 81.63 131.02 81.07 129.83 79.95C128.71 78.76 128.15 77.36 128.15 75.75C128.15 74.07 128.71 72.635 129.83 71.445C131.02 70.255 132.455 69.66 134.135 69.66Z" fill="#EDBD9D"/>
<path d="M29.05 92.41C29.05 93.2433 28.8133 93.9033 28.34 94.39C27.8667 94.87 27.2233 95.11 26.41 95.11C25.59 95.11 24.9433 94.87 24.47 94.39C23.9967 93.9033 23.76 93.2433 23.76 92.41V88.2H24.44V92.41C24.44 93.0833 24.6133 93.61 24.96 93.99C25.3133 94.37 25.7967 94.56 26.41 94.56C27.0167 94.56 27.4933 94.37 27.84 93.99C28.1933 93.6033 28.37 93.0767 28.37 92.41V88.2H29.05V92.41ZM32.7566 95V88.2H33.4266V95H32.7566ZM36.4697 95L38.9097 88.2H39.5597L37.1197 95H36.4697ZM47.8012 92.41C47.8012 93.2433 47.5645 93.9033 47.0912 94.39C46.6178 94.87 45.9745 95.11 45.1612 95.11C44.3412 95.11 43.6945 94.87 43.2212 94.39C42.7478 93.9033 42.5112 93.2433 42.5112 92.41V88.2H43.1912V92.41C43.1912 93.0833 43.3645 93.61 43.7112 93.99C44.0645 94.37 44.5478 94.56 45.1612 94.56C45.7678 94.56 46.2445 94.37 46.5912 93.99C46.9445 93.6033 47.1212 93.0767 47.1212 92.41V88.2H47.8012V92.41ZM55.9778 95L54.0978 92.42L53.8278 92.01L53.5478 92.42L51.6678 95H50.9278L53.4678 91.48L51.1178 88.2H51.9078L53.5778 90.47L53.8878 90.93L54.1978 90.47L55.8478 88.2H56.5878L54.2478 91.47L56.7678 95H55.9778ZM64.1453 95V88.2H66.2153C67.2686 88.2 68.102 88.5033 68.7153 89.11C69.3286 89.71 69.6353 90.5433 69.6353 91.61C69.6353 92.67 69.3286 93.5 68.7153 94.1C68.102 94.7 67.2686 95 66.2153 95H64.1453ZM66.2153 94.45C67.0686 94.45 67.7353 94.2 68.2153 93.7C68.6953 93.2 68.9353 92.5033 68.9353 91.61C68.9353 90.71 68.6953 90.01 68.2153 89.51C67.7353 89.0033 67.0686 88.75 66.2153 88.75H64.8153V94.45H66.2153ZM73.1691 95V88.2H77.6791V88.75H73.8391V91.19H77.3191V91.75H73.8391V94.45H77.6791V95H73.1691ZM81.5587 89.84C81.5587 90.18 81.6621 90.45 81.8687 90.65C82.0821 90.8433 82.3454 90.97 82.6587 91.03C82.9721 91.09 83.3087 91.16 83.6687 91.24C84.0354 91.3133 84.3754 91.4 84.6887 91.5C85.0021 91.5933 85.2621 91.78 85.4687 92.06C85.6821 92.3333 85.7887 92.6933 85.7887 93.14C85.7887 93.76 85.5621 94.2433 85.1087 94.59C84.6621 94.9367 84.0787 95.11 83.3587 95.11C82.6321 95.11 82.0387 94.9467 81.5787 94.62C81.1187 94.2867 80.8221 93.7967 80.6887 93.15H81.3887C81.4954 93.5967 81.7187 93.94 82.0587 94.18C82.3987 94.4133 82.8354 94.53 83.3687 94.53C83.9221 94.53 84.3487 94.4133 84.6487 94.18C84.9487 93.94 85.0987 93.62 85.0987 93.22C85.0987 92.9067 85.0187 92.65 84.8587 92.45C84.7054 92.25 84.5054 92.1067 84.2587 92.02C84.0121 91.9333 83.7387 91.8633 83.4387 91.81C83.1387 91.7567 82.8354 91.7 82.5287 91.64C82.2287 91.5733 81.9554 91.4833 81.7087 91.37C81.4621 91.2567 81.2587 91.0767 81.0987 90.83C80.9454 90.5767 80.8687 90.26 80.8687 89.88C80.8687 89.3733 81.0654 88.95 81.4587 88.61C81.8521 88.2633 82.4021 88.09 83.1087 88.09C83.7754 88.09 84.3321 88.2567 84.7787 88.59C85.2254 88.9167 85.5021 89.4133 85.6087 90.08H84.8987C84.7054 89.14 84.1054 88.67 83.0987 88.67C82.6121 88.67 82.2321 88.7767 81.9587 88.99C81.6921 89.2033 81.5587 89.4867 81.5587 89.84ZM89.1465 95V88.2H89.8165V95H89.1465ZM99.0295 95H98.5195L98.4595 93.72C98.0729 94.6467 97.3562 95.11 96.3095 95.11C95.3962 95.11 94.6729 94.7967 94.1395 94.17C93.6129 93.5433 93.3495 92.69 93.3495 91.61C93.3495 90.5233 93.6162 89.6667 94.1495 89.04C94.6895 88.4067 95.4295 88.09 96.3695 88.09C97.0095 88.09 97.5729 88.2667 98.0595 88.62C98.5462 88.9667 98.8762 89.4533 99.0495 90.08H98.3395C98.1995 89.6333 97.9495 89.2867 97.5895 89.04C97.2362 88.7933 96.8229 88.67 96.3495 88.67C95.6295 88.67 95.0629 88.9333 94.6495 89.46C94.2429 89.98 94.0395 90.6967 94.0395 91.61C94.0395 92.5233 94.2462 93.24 94.6595 93.76C95.0729 94.2733 95.6429 94.53 96.3695 94.53C96.9562 94.53 97.4329 94.3333 97.7995 93.94C98.1662 93.54 98.3595 92.9433 98.3795 92.15H96.4795V91.61H99.0295V95ZM102.712 95V88.2H103.422L106.902 93.43L107.252 94.03V88.2H107.932V95H107.222L103.752 89.8L103.382 89.16V95H102.712ZM111.736 95V88.2H116.246V88.75H112.406V91.19H115.886V91.75H112.406V94.45H116.246V95H111.736ZM119.685 95V88.2H122.005C122.698 88.2 123.248 88.37 123.655 88.71C124.062 89.0433 124.265 89.4967 124.265 90.07C124.265 90.4633 124.168 90.8 123.975 91.08C123.782 91.36 123.508 91.57 123.155 91.71C123.402 91.7967 123.598 91.94 123.745 92.14C123.892 92.3333 124.012 92.6167 124.105 92.99L124.615 95H123.905L123.455 93.14C123.342 92.68 123.178 92.38 122.965 92.24C122.752 92.0933 122.408 92.02 121.935 92.02H120.355V95H119.685ZM121.995 88.75H120.355V91.46H121.985C122.478 91.46 122.865 91.34 123.145 91.1C123.432 90.8533 123.575 90.52 123.575 90.1C123.575 89.6867 123.432 89.36 123.145 89.12C122.865 88.8733 122.482 88.75 121.995 88.75Z" fill="black"/>
</svg>
