<svg width="246" height="224" viewBox="0 0 246 224" fill="none" xmlns="http://www.w3.org/2000/svg">
<path d="M62.48 87.2H74.192C74.416 87.2 74.528 87.328 74.528 87.584C74.528 87.776 74.4 87.888 74.144 87.92C73.248 88.048 72.608 88.448 72.224 89.12C71.84 89.76 71.648 90.8 71.648 92.24V101.84C71.648 101.904 71.648 102.016 71.648 102.176C71.744 111.392 67.904 116 60.128 116C58.848 116 57.6 115.84 56.384 115.52C55.2 115.168 54.048 114.544 52.928 113.648C51.808 112.752 50.976 111.632 50.432 110.288C49.728 108.432 49.792 106.832 50.624 105.488C51.488 104.112 52.656 103.424 54.128 103.424C55.664 103.424 56.816 103.792 57.584 104.528C58.384 105.232 58.784 106.144 58.784 107.264C58.784 107.968 58.64 108.576 58.352 109.088C58.096 109.568 57.808 109.936 57.488 110.192C57.2 110.416 56.912 110.736 56.624 111.152C56.368 111.568 56.24 112.08 56.24 112.688C56.24 113.488 56.544 114.112 57.152 114.56C57.792 114.976 58.464 115.184 59.168 115.184C60.352 115.184 61.36 114.736 62.192 113.84C63.024 112.912 63.616 111.792 63.968 110.48C64.32 109.168 64.576 107.856 64.736 106.544C64.928 105.232 65.008 104.128 64.976 103.232V101.84V92.24C64.976 90.768 64.8 89.712 64.448 89.072C64.128 88.432 63.472 88.048 62.48 87.92C62.224 87.888 62.096 87.776 62.096 87.584C62.096 87.328 62.224 87.2 62.48 87.2ZM81.1419 97.424C86.9339 97.136 90.2139 99.392 90.9819 104.192L91.7019 110.384C92.1179 112.912 92.8859 114.272 94.0059 114.464C94.0379 114.496 94.1499 114.512 94.3419 114.512C94.5659 114.48 94.7099 114.464 94.7739 114.464C94.9659 114.464 95.0779 114.56 95.1099 114.752C95.1419 114.912 95.0779 115.04 94.9179 115.136C93.5739 115.936 92.0539 116.336 90.3579 116.336C87.9579 116.336 86.3579 115.536 85.5579 113.936C85.5579 113.936 85.4779 114.016 85.3179 114.176C85.1899 114.336 84.9499 114.544 84.5979 114.8C84.2779 115.024 83.8939 115.248 83.4459 115.472C82.9979 115.696 82.4219 115.888 81.7179 116.048C81.0459 116.208 80.3099 116.288 79.5099 116.288C78.3579 116.288 77.3019 116.144 76.3419 115.856C75.4139 115.568 74.6299 115.056 73.9899 114.32C73.3179 113.584 72.9819 112.64 72.9819 111.488C72.9819 110.368 73.2219 109.44 73.7019 108.704C74.1819 107.968 74.8219 107.44 75.6219 107.12C76.4219 106.8 77.2219 106.56 78.0219 106.4C78.8539 106.24 79.7339 106.096 80.6619 105.968C81.6219 105.808 82.3419 105.616 82.8219 105.392C83.3979 105.136 83.7659 104.8 83.9259 104.384C84.1179 103.968 84.1659 103.392 84.0699 102.656C84.0059 101.984 83.8619 101.344 83.6379 100.736C83.4459 100.128 83.0779 99.552 82.5339 99.008C81.9899 98.432 81.3499 98.144 80.6139 98.144C79.9099 98.144 79.3819 98.32 79.0299 98.672C78.7099 98.992 78.5499 99.392 78.5499 99.872C78.5499 100.192 78.6459 100.48 78.8379 100.736C79.0619 100.992 79.3019 101.2 79.5579 101.36C79.8139 101.52 80.0219 101.776 80.1819 102.128C80.3739 102.48 80.4219 102.88 80.3259 103.328C80.2619 103.776 80.0379 104.176 79.6539 104.528C79.3019 104.848 78.8859 105.056 78.4059 105.152C77.9579 105.248 77.4779 105.264 76.9659 105.2C76.4859 105.136 76.0379 104.928 75.6219 104.576C75.2379 104.224 74.9819 103.776 74.8539 103.232C74.4379 101.76 74.7899 100.464 75.9099 99.344C77.0299 98.192 78.7739 97.552 81.1419 97.424ZM84.3579 105.104C84.0379 105.552 83.6219 105.904 83.1099 106.16C83.0139 106.224 82.7419 106.384 82.2939 106.64C81.8779 106.896 81.5899 107.088 81.4299 107.216C81.2699 107.312 81.0139 107.504 80.6619 107.792C80.3099 108.08 80.0539 108.352 79.8939 108.608C79.7659 108.832 79.6379 109.152 79.5099 109.568C79.3819 109.952 79.3179 110.368 79.3179 110.816C79.3179 112.608 80.0539 113.792 81.5259 114.368C82.7099 114.816 83.7019 114.688 84.5019 113.984C85.0459 113.536 85.2699 112.944 85.1739 112.208L84.3579 105.104ZM105.247 97.376C105.311 97.376 105.375 97.392 105.439 97.424C105.535 97.488 105.583 97.6 105.583 97.76V99.536C106.735 98.16 108.319 97.472 110.335 97.472C115.007 97.472 117.695 99.712 118.399 104.192L119.167 110.96C119.359 112.368 119.679 113.408 120.127 114.08C120.575 114.72 121.263 115.12 122.191 115.28C122.479 115.312 122.623 115.424 122.623 115.616C122.623 115.872 122.495 116 122.239 116H110.623C110.335 116 110.191 115.872 110.191 115.616C110.191 115.424 110.335 115.312 110.623 115.28C111.551 115.12 112.127 114.736 112.351 114.128C112.607 113.488 112.655 112.432 112.495 110.96L111.727 103.52C111.535 102.08 111.151 100.896 110.575 99.968C109.999 99.008 109.167 98.608 108.079 98.768C107.535 98.832 107.087 99.024 106.735 99.344C106.415 99.664 106.175 100.144 106.015 100.784C105.855 101.392 105.743 102.064 105.679 102.8C105.615 103.504 105.583 104.416 105.583 105.536V110.96C105.583 112.4 105.775 113.456 106.159 114.128C106.543 114.768 107.183 115.152 108.079 115.28C108.335 115.312 108.463 115.424 108.463 115.616C108.463 115.872 108.351 116 108.127 116H96.4153C96.1593 116 96.0312 115.872 96.0312 115.616C96.0312 115.424 96.1593 115.312 96.4153 115.28C97.4073 115.152 98.0633 114.768 98.3833 114.128C98.7353 113.488 98.9113 112.432 98.9113 110.96V106.352C98.9113 104.752 98.7673 103.6 98.4793 102.896C98.1913 102.16 97.5513 101.664 96.5593 101.408C96.3033 101.344 96.1753 101.216 96.1753 101.024C96.1753 100.8 96.3033 100.672 96.5593 100.64C97.9353 100.608 99.3273 100.32 100.735 99.776C102.143 99.232 103.119 98.784 103.663 98.432C104.207 98.08 104.655 97.76 105.007 97.472C105.071 97.408 105.151 97.376 105.247 97.376ZM129.727 87.2C130.687 87.2 131.567 87.568 132.367 88.304C133.199 89.008 133.615 89.936 133.615 91.088C133.615 92.176 133.231 93.104 132.463 93.872C131.727 94.64 130.815 95.024 129.727 95.024C128.799 95.024 127.919 94.656 127.087 93.92C126.255 93.184 125.839 92.24 125.839 91.088C125.839 90.032 126.207 89.12 126.943 88.352C127.711 87.584 128.639 87.2 129.727 87.2ZM133.039 97.52C133.135 97.424 133.247 97.408 133.375 97.472C133.535 97.504 133.615 97.616 133.615 97.808V110.96C133.615 111.92 133.695 112.704 133.855 113.312C134.015 113.888 134.271 114.336 134.623 114.656C135.007 114.976 135.503 115.184 136.111 115.28C136.367 115.312 136.495 115.424 136.495 115.616C136.495 115.872 136.383 116 136.159 116H124.447C124.191 116 124.062 115.872 124.062 115.616C124.062 115.424 124.191 115.312 124.447 115.28C125.439 115.152 126.095 114.768 126.415 114.128C126.767 113.488 126.943 112.432 126.943 110.96V106.352C126.943 104.816 126.751 103.664 126.367 102.896C126.015 102.096 125.423 101.616 124.591 101.456C124.335 101.392 124.207 101.264 124.207 101.072C124.207 100.848 124.335 100.736 124.591 100.736C125.967 100.672 127.359 100.368 128.767 99.824C130.175 99.28 131.151 98.832 131.695 98.48C132.239 98.128 132.687 97.808 133.039 97.52ZM147.154 97.376C147.218 97.376 147.282 97.392 147.346 97.424C147.442 97.488 147.49 97.6 147.49 97.76V99.536C148.642 98.16 150.226 97.472 152.242 97.472C156.914 97.472 159.602 99.712 160.306 104.192L161.074 110.96C161.266 112.368 161.586 113.408 162.034 114.08C162.482 114.72 163.17 115.12 164.098 115.28C164.386 115.312 164.53 115.424 164.53 115.616C164.53 115.872 164.402 116 164.146 116H152.53C152.242 116 152.098 115.872 152.098 115.616C152.098 115.424 152.242 115.312 152.53 115.28C153.458 115.12 154.034 114.736 154.258 114.128C154.514 113.488 154.562 112.432 154.402 110.96L153.634 103.52C153.442 102.08 153.058 100.896 152.482 99.968C151.906 99.008 151.074 98.608 149.986 98.768C149.442 98.832 148.994 99.024 148.642 99.344C148.322 99.664 148.082 100.144 147.922 100.784C147.762 101.392 147.65 102.064 147.586 102.8C147.522 103.504 147.49 104.416 147.49 105.536V110.96C147.49 112.4 147.682 113.456 148.066 114.128C148.45 114.768 149.09 115.152 149.986 115.28C150.242 115.312 150.37 115.424 150.37 115.616C150.37 115.872 150.258 116 150.034 116H138.322C138.066 116 137.938 115.872 137.938 115.616C137.938 115.424 138.066 115.312 138.322 115.28C139.314 115.152 139.97 114.768 140.29 114.128C140.642 113.488 140.818 112.432 140.818 110.96V106.352C140.818 104.752 140.674 103.6 140.386 102.896C140.098 102.16 139.458 101.664 138.466 101.408C138.21 101.344 138.082 101.216 138.082 101.024C138.082 100.8 138.21 100.672 138.466 100.64C139.842 100.608 141.234 100.32 142.642 99.776C144.05 99.232 145.026 98.784 145.57 98.432C146.114 98.08 146.562 97.76 146.914 97.472C146.978 97.408 147.058 97.376 147.154 97.376ZM173.239 97.424C174.071 97.424 174.903 97.536 175.735 97.76C176.567 97.952 177.367 98.272 178.135 98.72C178.903 99.168 179.543 99.712 180.055 100.352C180.471 100.896 180.759 101.504 180.919 102.176C181.079 102.848 181.079 103.504 180.919 104.144C180.791 104.752 180.439 105.296 179.863 105.776C179.319 106.224 178.583 106.496 177.655 106.592L170.647 107.408C170.967 108.944 171.607 110.192 172.567 111.152C173.527 112.112 174.551 112.704 175.639 112.928C176.759 113.152 177.847 113.072 178.903 112.688C179.991 112.272 180.823 111.568 181.399 110.576C181.431 110.544 181.447 110.512 181.447 110.48C181.671 110.032 181.895 109.856 182.119 109.952C182.279 110.048 182.343 110.192 182.311 110.384C181.255 114.32 178.263 116.288 173.335 116.288C171.959 116.288 170.647 116.048 169.399 115.568C168.151 115.056 167.031 114.288 166.039 113.264C165.079 112.24 164.407 111.04 164.023 109.664C163.831 109.12 163.703 108.512 163.639 107.84C163.511 106.4 163.607 105.072 163.927 103.856C164.215 102.64 164.727 101.552 165.463 100.592C166.199 99.6 167.223 98.832 168.535 98.288C169.847 97.712 171.415 97.424 173.239 97.424ZM173.191 98.144C172.359 98.144 171.671 98.656 171.127 99.68C170.583 100.672 170.279 101.808 170.215 103.088C170.183 104.336 170.279 105.552 170.503 106.736C172.295 106.512 173.687 106.048 174.679 105.344C175.671 104.64 176.103 103.568 175.975 102.128C175.911 101.488 175.815 100.944 175.687 100.496C175.591 100.048 175.431 99.632 175.207 99.248C175.015 98.864 174.743 98.592 174.391 98.432C174.071 98.24 173.671 98.144 173.191 98.144Z" fill="#605B2F"/>
<path d="M51.384 115.2C52.184 115.2 53.4 115.2 55.032 115.2C56.696 115.2 58.248 115.2 59.688 115.2C61.128 115.2 62.488 115.2 63.768 115.2C67.256 115.2 69.96 115.808 71.88 117.024C73.832 118.208 74.808 119.84 74.808 121.92C74.808 123.2 74.536 124.304 73.992 125.232C73.448 126.16 72.712 126.896 71.784 127.44C70.888 127.952 69.736 128.368 68.328 128.688C70.536 128.912 72.376 129.6 73.848 130.752C75.32 131.872 76.056 133.536 76.056 135.744C76.056 138.336 75.016 140.368 72.936 141.84C70.888 143.28 68.2 144 64.872 144H51.384C51.128 144 51 143.872 51 143.616C51 143.424 51.128 143.312 51.384 143.28C52.376 143.152 53.032 142.768 53.352 142.128C53.704 141.488 53.88 140.432 53.88 138.96V120.24C53.88 118.768 53.704 117.712 53.352 117.072C53.032 116.432 52.376 116.048 51.384 115.92C51.128 115.888 51 115.776 51 115.584C51 115.328 51.128 115.2 51.384 115.2ZM62.424 115.92H60.552V128.592H62.424C63.832 128.592 65.128 128.016 66.312 126.864C67.528 125.712 68.136 124.112 68.136 122.064C68.136 119.984 67.56 118.448 66.408 117.456C65.288 116.432 63.96 115.92 62.424 115.92ZM60.552 129.312V143.28H62.952C64.648 143.28 66.136 142.624 67.416 141.312C68.696 140 69.336 138.144 69.336 135.744C69.336 134.912 69.224 134.16 69 133.488C68.808 132.784 68.536 132.208 68.184 131.76C67.832 131.312 67.416 130.928 66.936 130.608C66.488 130.256 65.992 130 65.448 129.84C64.936 129.648 64.424 129.52 63.912 129.456C63.432 129.36 62.92 129.312 62.376 129.312H60.552ZM88.0361 125.424C88.8681 125.424 89.7001 125.536 90.5321 125.76C91.3641 125.952 92.1641 126.272 92.9321 126.72C93.7001 127.168 94.3401 127.712 94.8521 128.352C95.2681 128.896 95.5561 129.504 95.7161 130.176C95.8761 130.848 95.8761 131.504 95.7161 132.144C95.5881 132.752 95.2361 133.296 94.6601 133.776C94.1161 134.224 93.3801 134.496 92.4521 134.592L85.4441 135.408C85.7641 136.944 86.4041 138.192 87.3641 139.152C88.3241 140.112 89.3481 140.704 90.4361 140.928C91.5561 141.152 92.6441 141.072 93.7001 140.688C94.7881 140.272 95.6201 139.568 96.1961 138.576C96.2281 138.544 96.2441 138.512 96.2441 138.48C96.4681 138.032 96.6921 137.856 96.9161 137.952C97.0761 138.048 97.1401 138.192 97.1081 138.384C96.0521 142.32 93.0601 144.288 88.1321 144.288C86.7561 144.288 85.4441 144.048 84.1961 143.568C82.9481 143.056 81.8281 142.288 80.8361 141.264C79.8761 140.24 79.2041 139.04 78.8201 137.664C78.6281 137.12 78.5001 136.512 78.4361 135.84C78.3081 134.4 78.4041 133.072 78.7241 131.856C79.0121 130.64 79.5241 129.552 80.2601 128.592C80.9961 127.6 82.0201 126.832 83.3321 126.288C84.6441 125.712 86.2121 125.424 88.0361 125.424ZM87.9881 126.144C87.1561 126.144 86.4681 126.656 85.9241 127.68C85.3801 128.672 85.0761 129.808 85.0121 131.088C84.9801 132.336 85.0761 133.552 85.3001 134.736C87.0921 134.512 88.4841 134.048 89.4761 133.344C90.4681 132.64 90.9001 131.568 90.7721 130.128C90.7081 129.488 90.6121 128.944 90.4841 128.496C90.3881 128.048 90.2281 127.632 90.0041 127.248C89.8121 126.864 89.5401 126.592 89.1881 126.432C88.8681 126.24 88.4681 126.144 87.9881 126.144ZM111.335 125.184C113.031 125.184 114.263 125.824 115.031 127.104C115.831 128.384 115.799 129.76 114.935 131.232C114.551 131.84 114.007 132.272 113.303 132.528C112.631 132.752 111.959 132.768 111.287 132.576C110.167 132.256 109.607 131.6 109.607 130.608C109.607 130.096 109.879 129.648 110.423 129.264C110.999 128.88 111.287 128.496 111.287 128.112C111.287 127.536 111.095 127.072 110.711 126.72C110.327 126.368 109.831 126.24 109.223 126.336C108.167 126.656 107.463 127.36 107.111 128.448C106.759 129.504 106.583 131.136 106.583 133.344V138.96C106.583 140.4 106.759 141.456 107.111 142.128C107.495 142.768 108.151 143.152 109.079 143.28C109.335 143.312 109.463 143.424 109.463 143.616C109.463 143.872 109.335 144 109.079 144H97.4153C97.1593 144 97.0312 143.872 97.0312 143.616C97.0312 143.424 97.1593 143.312 97.4153 143.28C98.3753 143.152 99.0313 142.768 99.3833 142.128C99.7353 141.488 99.9113 140.432 99.9113 138.96V134.352C99.9113 132.816 99.7193 131.664 99.3353 130.896C98.9833 130.096 98.3913 129.616 97.5593 129.456C97.2713 129.392 97.1273 129.264 97.1273 129.072C97.1273 128.848 97.2713 128.736 97.5593 128.736C98.9353 128.672 100.327 128.368 101.735 127.824C103.143 127.28 104.103 126.832 104.615 126.48C105.159 126.128 105.607 125.808 105.959 125.52C106.087 125.424 106.215 125.408 106.343 125.472C106.503 125.504 106.583 125.616 106.583 125.808V127.248C107.543 126.32 108.535 125.712 109.559 125.424C110.199 125.264 110.791 125.184 111.335 125.184ZM125.747 125.376C125.811 125.376 125.875 125.392 125.939 125.424C126.035 125.488 126.083 125.6 126.083 125.76V127.536C127.235 126.16 128.819 125.472 130.835 125.472C135.507 125.472 138.195 127.712 138.899 132.192L139.667 138.96C139.859 140.368 140.179 141.408 140.627 142.08C141.075 142.72 141.763 143.12 142.691 143.28C142.979 143.312 143.123 143.424 143.123 143.616C143.123 143.872 142.995 144 142.739 144H131.123C130.835 144 130.691 143.872 130.691 143.616C130.691 143.424 130.835 143.312 131.123 143.28C132.051 143.12 132.627 142.736 132.851 142.128C133.107 141.488 133.155 140.432 132.995 138.96L132.227 131.52C132.035 130.08 131.651 128.896 131.075 127.968C130.499 127.008 129.667 126.608 128.579 126.768C128.035 126.832 127.587 127.024 127.235 127.344C126.915 127.664 126.675 128.144 126.515 128.784C126.355 129.392 126.243 130.064 126.179 130.8C126.115 131.504 126.083 132.416 126.083 133.536V138.96C126.083 140.4 126.275 141.456 126.659 142.128C127.043 142.768 127.683 143.152 128.579 143.28C128.835 143.312 128.963 143.424 128.963 143.616C128.963 143.872 128.851 144 128.627 144H116.915C116.659 144 116.531 143.872 116.531 143.616C116.531 143.424 116.659 143.312 116.915 143.28C117.907 143.152 118.563 142.768 118.883 142.128C119.235 141.488 119.411 140.432 119.411 138.96V134.352C119.411 132.752 119.267 131.6 118.979 130.896C118.691 130.16 118.051 129.664 117.059 129.408C116.803 129.344 116.675 129.216 116.675 129.024C116.675 128.8 116.803 128.672 117.059 128.64C118.435 128.608 119.827 128.32 121.235 127.776C122.643 127.232 123.619 126.784 124.163 126.432C124.707 126.08 125.155 125.76 125.507 125.472C125.571 125.408 125.651 125.376 125.747 125.376ZM151.833 125.424C152.665 125.424 153.497 125.536 154.329 125.76C155.161 125.952 155.961 126.272 156.729 126.72C157.497 127.168 158.137 127.712 158.649 128.352C159.065 128.896 159.353 129.504 159.513 130.176C159.673 130.848 159.673 131.504 159.513 132.144C159.385 132.752 159.033 133.296 158.457 133.776C157.913 134.224 157.177 134.496 156.249 134.592L149.241 135.408C149.561 136.944 150.201 138.192 151.161 139.152C152.121 140.112 153.145 140.704 154.233 140.928C155.353 141.152 156.441 141.072 157.497 140.688C158.585 140.272 159.417 139.568 159.993 138.576C160.025 138.544 160.041 138.512 160.041 138.48C160.265 138.032 160.489 137.856 160.713 137.952C160.873 138.048 160.937 138.192 160.905 138.384C159.849 142.32 156.857 144.288 151.929 144.288C150.553 144.288 149.241 144.048 147.993 143.568C146.745 143.056 145.625 142.288 144.633 141.264C143.673 140.24 143.001 139.04 142.617 137.664C142.425 137.12 142.297 136.512 142.233 135.84C142.105 134.4 142.201 133.072 142.521 131.856C142.809 130.64 143.321 129.552 144.057 128.592C144.793 127.6 145.817 126.832 147.129 126.288C148.441 125.712 150.009 125.424 151.833 125.424ZM151.785 126.144C150.953 126.144 150.265 126.656 149.721 127.68C149.177 128.672 148.873 129.808 148.809 131.088C148.777 132.336 148.873 133.552 149.097 134.736C150.889 134.512 152.281 134.048 153.273 133.344C154.265 132.64 154.697 131.568 154.569 130.128C154.505 129.488 154.409 128.944 154.281 128.496C154.185 128.048 154.025 127.632 153.801 127.248C153.609 126.864 153.337 126.592 152.985 126.432C152.665 126.24 152.265 126.144 151.785 126.144ZM168.665 118.944C168.729 118.752 168.857 118.672 169.049 118.704C169.241 118.736 169.337 118.864 169.337 119.088V126.432H172.649C172.905 126.432 173.033 126.56 173.033 126.816C173.033 127.04 172.905 127.152 172.649 127.152H169.337V137.568C169.337 140.064 169.849 141.296 170.873 141.264C171.257 141.264 171.641 141.088 172.025 140.736C172.409 140.384 172.697 139.984 172.889 139.536C172.953 139.376 173.065 139.296 173.225 139.296C173.353 139.296 173.449 139.36 173.513 139.488C173.577 139.584 173.577 139.696 173.513 139.824C172.969 141.072 172.169 142.128 171.113 142.992C170.057 143.856 168.889 144.288 167.609 144.288C165.945 144.288 164.697 143.776 163.865 142.752C163.033 141.696 162.617 139.968 162.617 137.568L162.665 130.176C162.665 129.6 162.665 129.168 162.665 128.88C162.665 128.592 162.617 128.304 162.521 128.016C162.457 127.728 162.393 127.552 162.329 127.488C162.297 127.392 162.169 127.312 161.945 127.248C161.689 127.152 161.465 127.104 161.273 127.104C161.081 127.104 160.761 127.104 160.313 127.104C160.025 127.04 159.881 126.912 159.881 126.72C159.881 126.528 160.009 126.416 160.265 126.384C161.609 126.096 163.225 125.168 165.113 123.6C167.033 122 168.217 120.448 168.665 118.944Z" fill="#605B2F"/>
<path d="M183.135 132.66C184.185 132.66 185.165 132.94 186.075 133.5C186.985 134.06 187.685 134.795 188.175 135.705C188.735 136.615 189.015 137.63 189.015 138.75C189.015 140.36 188.42 141.76 187.23 142.95C186.11 144.07 184.71 144.63 183.03 144.63C181.42 144.63 180.02 144.07 178.83 142.95C177.71 141.76 177.15 140.36 177.15 138.75C177.15 137.07 177.71 135.635 178.83 134.445C180.02 133.255 181.455 132.66 183.135 132.66Z" fill="#EDBD9D"/>
<path d="M78.05 155.41C78.05 156.243 77.8133 156.903 77.34 157.39C76.8667 157.87 76.2233 158.11 75.41 158.11C74.59 158.11 73.9433 157.87 73.47 157.39C72.9967 156.903 72.76 156.243 72.76 155.41V151.2H73.44V155.41C73.44 156.083 73.6133 156.61 73.96 156.99C74.3133 157.37 74.7967 157.56 75.41 157.56C76.0167 157.56 76.4933 157.37 76.84 156.99C77.1933 156.603 77.37 156.077 77.37 155.41V151.2H78.05V155.41ZM81.7566 158V151.2H82.4266V158H81.7566ZM85.4697 158L87.9097 151.2H88.5597L86.1197 158H85.4697ZM96.8012 155.41C96.8012 156.243 96.5645 156.903 96.0912 157.39C95.6178 157.87 94.9745 158.11 94.1612 158.11C93.3412 158.11 92.6945 157.87 92.2212 157.39C91.7478 156.903 91.5112 156.243 91.5112 155.41V151.2H92.1912V155.41C92.1912 156.083 92.3645 156.61 92.7112 156.99C93.0645 157.37 93.5478 157.56 94.1612 157.56C94.7678 157.56 95.2445 157.37 95.5912 156.99C95.9445 156.603 96.1212 156.077 96.1212 155.41V151.2H96.8012V155.41ZM104.978 158L103.098 155.42L102.828 155.01L102.548 155.42L100.668 158H99.9278L102.468 154.48L100.118 151.2H100.908L102.578 153.47L102.888 153.93L103.198 153.47L104.848 151.2H105.588L103.248 154.47L105.768 158H104.978ZM113.145 158V151.2H115.215C116.269 151.2 117.102 151.503 117.715 152.11C118.329 152.71 118.635 153.543 118.635 154.61C118.635 155.67 118.329 156.5 117.715 157.1C117.102 157.7 116.269 158 115.215 158H113.145ZM115.215 157.45C116.069 157.45 116.735 157.2 117.215 156.7C117.695 156.2 117.935 155.503 117.935 154.61C117.935 153.71 117.695 153.01 117.215 152.51C116.735 152.003 116.069 151.75 115.215 151.75H113.815V157.45H115.215ZM122.169 158V151.2H126.679V151.75H122.839V154.19H126.319V154.75H122.839V157.45H126.679V158H122.169ZM130.559 152.84C130.559 153.18 130.662 153.45 130.869 153.65C131.082 153.843 131.345 153.97 131.659 154.03C131.972 154.09 132.309 154.16 132.669 154.24C133.035 154.313 133.375 154.4 133.689 154.5C134.002 154.593 134.262 154.78 134.469 155.06C134.682 155.333 134.789 155.693 134.789 156.14C134.789 156.76 134.562 157.243 134.109 157.59C133.662 157.937 133.079 158.11 132.359 158.11C131.632 158.11 131.039 157.947 130.579 157.62C130.119 157.287 129.822 156.797 129.689 156.15H130.389C130.495 156.597 130.719 156.94 131.059 157.18C131.399 157.413 131.835 157.53 132.369 157.53C132.922 157.53 133.349 157.413 133.649 157.18C133.949 156.94 134.099 156.62 134.099 156.22C134.099 155.907 134.019 155.65 133.859 155.45C133.705 155.25 133.505 155.107 133.259 155.02C133.012 154.933 132.739 154.863 132.439 154.81C132.139 154.757 131.835 154.7 131.529 154.64C131.229 154.573 130.955 154.483 130.709 154.37C130.462 154.257 130.259 154.077 130.099 153.83C129.945 153.577 129.869 153.26 129.869 152.88C129.869 152.373 130.065 151.95 130.459 151.61C130.852 151.263 131.402 151.09 132.109 151.09C132.775 151.09 133.332 151.257 133.779 151.59C134.225 151.917 134.502 152.413 134.609 153.08H133.899C133.705 152.14 133.105 151.67 132.099 151.67C131.612 151.67 131.232 151.777 130.959 151.99C130.692 152.203 130.559 152.487 130.559 152.84ZM138.146 158V151.2H138.816V158H138.146ZM148.03 158H147.52L147.46 156.72C147.073 157.647 146.356 158.11 145.31 158.11C144.396 158.11 143.673 157.797 143.14 157.17C142.613 156.543 142.35 155.69 142.35 154.61C142.35 153.523 142.616 152.667 143.15 152.04C143.69 151.407 144.43 151.09 145.37 151.09C146.01 151.09 146.573 151.267 147.06 151.62C147.546 151.967 147.876 152.453 148.05 153.08H147.34C147.2 152.633 146.95 152.287 146.59 152.04C146.236 151.793 145.823 151.67 145.35 151.67C144.63 151.67 144.063 151.933 143.65 152.46C143.243 152.98 143.04 153.697 143.04 154.61C143.04 155.523 143.246 156.24 143.66 156.76C144.073 157.273 144.643 157.53 145.37 157.53C145.956 157.53 146.433 157.333 146.8 156.94C147.166 156.54 147.36 155.943 147.38 155.15H145.48V154.61H148.03V158ZM151.712 158V151.2H152.422L155.902 156.43L156.252 157.03V151.2H156.932V158H156.222L152.752 152.8L152.382 152.16V158H151.712ZM160.736 158V151.2H165.246V151.75H161.406V154.19H164.886V154.75H161.406V157.45H165.246V158H160.736ZM168.685 158V151.2H171.005C171.698 151.2 172.248 151.37 172.655 151.71C173.062 152.043 173.265 152.497 173.265 153.07C173.265 153.463 173.168 153.8 172.975 154.08C172.782 154.36 172.508 154.57 172.155 154.71C172.402 154.797 172.598 154.94 172.745 155.14C172.892 155.333 173.012 155.617 173.105 155.99L173.615 158H172.905L172.455 156.14C172.342 155.68 172.178 155.38 171.965 155.24C171.752 155.093 171.408 155.02 170.935 155.02H169.355V158H168.685ZM170.995 151.75H169.355V154.46H170.985C171.478 154.46 171.865 154.34 172.145 154.1C172.432 153.853 172.575 153.52 172.575 153.1C172.575 152.687 172.432 152.36 172.145 152.12C171.865 151.873 171.482 151.75 170.995 151.75Z" fill="black"/>
</svg>
